<svg xmlns="http://www.w3.org/2000/svg" width="245.268" height="75.285" viewBox="0 0 245.268 75.285">
  <g id="Group_9" data-name="Group 9" transform="translate(-213.202 -173.053)">
    <path id="Path_1" data-name="Path 1" d="M374.037,190.079a71.008,71.008,0,0,0-18.724-1.446,60.518,60.518,0,0,0-16.511,3.331c-7.262,2.508-8.171,5.087-18.031,6.493-10.807.857-12.918-1.63-23.043-2.715a131.073,131.073,0,0,0-27.746.045c-15.246,1.426-28.013,4.745-41.283,8.448-.278.078.476,4.552.514,4.881.213,1.847,1.49,8.166,2.219,9.444.449.787,1.83,1.248,2.8,1.627a3.215,3.215,0,0,1,.914.483,3.1,3.1,0,0,1,.741,1.115c2.814,5.984,5.654,11.968,8.72,17.7,2.553,4.776,5.649,9.316,9.921,12.4,7.066,5.1,16.744,6.177,24.635,4.757a81.227,81.227,0,0,0,12.046-3.123,45.131,45.131,0,0,0,9.884-4.6,27.2,27.2,0,0,0,10.213-12.06,93.5,93.5,0,0,0,4.775-14.83c.831-3.273,1.241-8.26,3.508-10.36a7.981,7.981,0,0,1,.9-.722,5.706,5.706,0,0,1,.913-.536,6.27,6.27,0,0,1,1.635-.439,6.465,6.465,0,0,1,1.071-.079,5.07,5.07,0,0,1,1.067.152,7.6,7.6,0,0,1,.866.263c.2.073.391.157.586.241,2.694,1.23,4.7,5.546,6.455,8.139a80.6,80.6,0,0,0,8.24,10.711,16.288,16.288,0,0,0,10.034,5.3,20.79,20.79,0,0,0,6.653-.5,33.674,33.674,0,0,0,6.525-2.145A16.853,16.853,0,0,0,373.406,222a31.217,31.217,0,0,0,1.2-9.392c.022-3.855-.074-7.748-.177-11.576a2.454,2.454,0,0,1,.052-.736,1.289,1.289,0,0,1,.216-.4,3.661,3.661,0,0,0,.808-1.306c.022-.147-.248-2.615-.4-3.564A44.01,44.01,0,0,0,374.037,190.079Z" transform="translate(-13.504 -13.504)" fill="#fff"/>
    <path id="Path_2" data-name="Path 2" d="M358.674,307.015l-.065-.016q-.021.229-.046.456a14.361,14.361,0,0,1-8.5,12.042c-4.684,2.2-11.109,3.806-16.592.8-6.451-3.532-11.4-12.39-13.351-21.362-.1-.484-.193-.975-.258-1.466l-10.057-8.129c-.553.107-1.139.21-1.762.308l-7.562,28.932-9.183,13.8-1.752-.769-.041.045c-.06.066-.122.13-.183.2-.122.131-.244.261-.37.389-.074.075-.149.148-.223.222-.116.115-.233.23-.352.343-.08.076-.161.151-.243.226q-.176.163-.356.322-.126.111-.253.221-.183.158-.37.312c-.085.07-.169.14-.255.209-.132.106-.266.21-.4.314-.081.062-.16.126-.242.187-.158.119-.319.236-.48.352-.06.043-.118.087-.178.13q-.332.235-.672.461c-.062.041-.125.08-.187.121-.167.11-.335.219-.506.325-.089.056-.18.11-.27.165-.145.089-.291.178-.438.264-.1.058-.2.115-.3.173q-.212.122-.426.241l-.312.171q-.214.116-.43.229l-.314.163c-.148.076-.3.15-.448.224l-.306.15c-.163.078-.327.155-.491.231l-.272.127q-.345.157-.695.307l-.1.045q-.374.16-.751.313l-.279.111c-.171.068-.342.136-.514.2l-.324.122c-.159.059-.318.119-.478.176l-.341.121-.472.164-.344.116-.48.157-.338.108c-.168.053-.337.1-.506.156l-.313.095c-.2.059-.4.115-.593.172l-.229.066q-.411.115-.822.223l-.205.053q-.312.081-.625.159l-.306.074c-.175.042-.35.085-.525.125l-.336.077-.5.112-.343.074-.5.1-.338.069-.508.1-.321.062-.114.022-.381.068-.355.064-.513.087-.328.055c-.189.031-.378.06-.566.089l-.271.042q-.407.061-.811.118l-.02,0c-8.924,1.25-18.959-.156-25.147-8.441a33.773,33.773,0,0,1-3.16-5.19q-.272-.546-.528-1.1-.385-.833-.737-1.685t-.677-1.718q-.325-.866-.625-1.744c-.734-2.146-1.367-4.339-1.956-6.531a38.576,38.576,0,0,1-.925-4.316q-.044-.294-.081-.588-.053-.421-.092-.843-.056-.605-.078-1.209-.013-.353-.013-.7a15.963,15.963,0,0,1,.173-2.391l-6.11-2.683-11.444-10.163c-.149.81.517,6.709.553,7.023.216,1.879,1.516,8.308,2.258,9.608a3.285,3.285,0,0,0,1.882,1.655,3.272,3.272,0,0,1,.929.491,3.157,3.157,0,0,1,.754,1.134c2.863,6.088,5.753,12.177,8.871,18.01,2.6,4.859,5.747,9.478,10.093,12.615,7.189,5.189,17.035,6.284,25.064,4.839a95.779,95.779,0,0,0,13.223-3.177,45.923,45.923,0,0,0,10.056-4.679c4.582-2.96,9.634-7.947,11.921-13.121,2.14-4.84,2.04-9.168,3.327-14.237.845-3.33,1.263-6.885,3.569-9.021a6.65,6.65,0,0,1,4.6-1.668,5.165,5.165,0,0,1,1.085.155,7.726,7.726,0,0,1,.881.268c.2.074.4.16.6.245,2.741,1.252,4.591,4.052,6.375,6.691a71.341,71.341,0,0,0,8.161,10,16.571,16.571,0,0,0,10.209,5.393,21.153,21.153,0,0,0,6.769-.508,34.257,34.257,0,0,0,6.638-2.182c3.746-1.672,7.8-4.426,9.441-9.4a23.474,23.474,0,0,0,.988-4.883Z" transform="translate(-0.14 -101.728)" fill="#30661c"/>
    <g id="Group_1" data-name="Group 1" transform="translate(376.781 194.823)">
      <path id="Path_3" data-name="Path 3" d="M1535.1,388.767a6.871,6.871,0,0,1-1.592,4.582,6.109,6.109,0,0,1-3.533,2.252,20.943,20.943,0,0,1-5.488-.1,5.473,5.473,0,0,1-3.521-2.149,6.982,6.982,0,0,1-1.553-4.582v-.854a6.631,6.631,0,0,1,1.553-4.491A7.615,7.615,0,0,1,1524.7,381a15.658,15.658,0,0,1,5.074,0,6.553,6.553,0,0,1,3.74,2.33,6.873,6.873,0,0,1,1.592,4.582Zm-1.916-.621h0a5.377,5.377,0,0,0-1.449-3.585,4.616,4.616,0,0,0-3.495-1.411h-1.734a5.192,5.192,0,0,0-5.177,5.177v.026a5.192,5.192,0,0,0,5.177,5.177h1.734a4.563,4.563,0,0,0,3.546-1.553A5.4,5.4,0,0,0,1533.187,388.145Z" transform="translate(-1519.416 -376.548)" fill="#204419"/>
      <path id="Path_4" data-name="Path 4" d="M1692.821,388.767a6.871,6.871,0,0,1-1.592,4.582,6.11,6.11,0,0,1-3.534,2.252,20.941,20.941,0,0,1-5.488-.1,4.694,4.694,0,0,1-3.314-2.278v5.9a.832.832,0,0,1-.857.828.866.866,0,0,1-.9-.828V387.912a6.631,6.631,0,0,1,1.553-4.491,7.615,7.615,0,0,1,3.728-2.42,15.656,15.656,0,0,1,5.074,0,6.554,6.554,0,0,1,3.74,2.33,6.873,6.873,0,0,1,1.592,4.582Zm-1.708-.518h0a5.1,5.1,0,0,0-1.605-3.637,4.7,4.7,0,0,0-3.546-1.463h-1.734a5.192,5.192,0,0,0-5.177,5.177v.026a5.192,5.192,0,0,0,5.177,5.177h1.734a5.014,5.014,0,0,0,3.546-1.294A5.283,5.283,0,0,0,1691.113,388.249Z" transform="translate(-1657.383 -376.548)" fill="#204419"/>
      <path id="Path_5" data-name="Path 5" d="M1850.823,354.97c0,.689-.332,1.137-.965,1.137h-12.632l.052,2.485v.026a5.193,5.193,0,0,0,5.177,5.177h1.734a4.747,4.747,0,0,0,3.546-1.463c.346-.355.661-.614.905-.841.681-.634,1.1-.6,1.451-.246.529.529.6.959-.065,1.677-.159.173-.353.353-.57.588a7.01,7.01,0,0,1-3.74,2.33,15.663,15.663,0,0,1-5.074,0,7.613,7.613,0,0,1-3.727-2.42,6.629,6.629,0,0,1-1.553-4.491V347.719a.834.834,0,0,1,.868-.828.851.851,0,0,1,.893.828v6.213h12.736A.933.933,0,0,1,1850.823,354.97Z" transform="translate(-1795.796 -346.891)" fill="#204419"/>
      <path id="Path_6" data-name="Path 6" d="M1993.081,393.848a.969.969,0,0,1-.932.819.925.925,0,0,1-.932-.819V379.966a.938.938,0,0,1,1.864,0v13.882Z" transform="translate(-1932.133 -375.1)" fill="#204419"/>
      <path id="Path_7" data-name="Path 7" d="M2046.207,359.469v7.1c0,.466-.519.774-.932.771-.346,0-.931-.3-.931-.771V348.752a.938.938,0,0,1,1.864,0v10.717Zm0,.932h7.714a5.807,5.807,0,0,1,2.563.828,2.994,2.994,0,0,1,1.864,2.641c0,.432.075,2.071.075,2.071,0,.112,0,.419,0,.513a.838.838,0,0,0,.885.784.808.808,0,0,0,.837-.841c0-.067,0-.308,0-.38.018-.3-.009-1.992-.009-2.147q0-2.692-3.184-4.245a5.508,5.508,0,0,0,3.184-5.229c0-.483.009-.8.009-1.067a.9.9,0,0,0-1.8-.044c0,.076,0,.131,0,.131-.025,2.256-.479,3.3-1.652,4.164a5.043,5.043,0,0,1-2.718,1.165h-7.766Z" transform="translate(-1978.605 -347.795)" fill="#204419"/>
    </g>
    <g id="Group_5" data-name="Group 5" transform="translate(215.263 177.062)">
      <g id="Group_2" data-name="Group 2" transform="translate(0)">
        <path id="Path_8" data-name="Path 8" d="M806.166,630.9c-.083.069-.166.138-.25.206C806,631.042,806.083,630.973,806.166,630.9Z" transform="translate(-733.75 -577.576)" fill="none"/>
        <path id="Path_9" data-name="Path 9" d="M645.734,694.8l-.323.054Z" transform="translate(-593.346 -633.472)" fill="none"/>
        <path id="Path_10" data-name="Path 10" d="M652.362,693.617l-.349.063Z" transform="translate(-599.121 -632.435)" fill="none"/>
        <path id="Path_11" data-name="Path 11" d="M659,692.426l-.315.06Z" transform="translate(-604.959 -631.393)" fill="none"/>
        <path id="Path_12" data-name="Path 12" d="M672.081,689.707l-.337.073Z" transform="translate(-616.381 -629.015)" fill="none"/>
        <path id="Path_13" data-name="Path 13" d="M801.117,635.013c-.079.061-.158.123-.238.184C800.959,635.136,801.038,635.074,801.117,635.013Z" transform="translate(-729.344 -581.17)" fill="none"/>
        <path id="Path_14" data-name="Path 14" d="M811.071,626.72q-.124.109-.249.217Q810.947,626.83,811.071,626.72Z" transform="translate(-738.042 -573.916)" fill="none"/>
        <path id="Path_15" data-name="Path 15" d="M678.679,688.226l-.33.076Z" transform="translate(-622.159 -627.719)" fill="none"/>
        <path id="Path_16" data-name="Path 16" d="M665.526,691.1l-.333.068Z" transform="translate(-610.65 -630.237)" fill="none"/>
        <path id="Path_17" data-name="Path 17" d="M639.107,695.934l-.266.042Z" transform="translate(-587.599 -634.462)" fill="none"/>
        <path id="Path_18" data-name="Path 18" d="M367.248,402.848c.042-.225.087-.448.141-.67C367.335,402.4,367.29,402.623,367.248,402.848Z" transform="translate(-350.017 -377.494)" fill="none"/>
        <path id="Path_19" data-name="Path 19" d="M820.489,617.977c-.072.074-.146.146-.219.219C820.343,618.123,820.417,618.051,820.489,617.977Z" transform="translate(-746.307 -566.268)" fill="none"/>
        <path id="Path_20" data-name="Path 20" d="M825.1,613.394c-.059.065-.12.128-.18.192C824.984,613.522,825.045,613.459,825.1,613.394Z" transform="translate(-750.378 -562.259)" fill="none"/>
        <path id="Path_21" data-name="Path 21" d="M365.322,430.5q-.013-.347-.013-.693Q365.309,430.151,365.322,430.5Z" transform="translate(-348.321 -401.662)" fill="none"/>
        <path id="Path_22" data-name="Path 22" d="M506.188,308.827l.323-.067Z" transform="translate(-471.558 -295.774)" fill="none"/>
        <path id="Path_23" data-name="Path 23" d="M395.564,556.567q-.347-.837-.666-1.688Q395.217,555.73,395.564,556.567Z" transform="translate(-374.205 -511.072)" fill="none"/>
        <path id="Path_24" data-name="Path 24" d="M366.114,445.651q-.052-.414-.091-.829Q366.061,445.237,366.114,445.651Z" transform="translate(-348.946 -414.797)" fill="none"/>
        <path id="Path_25" data-name="Path 25" d="M815.839,622.416c-.079.075-.159.149-.239.223C815.68,622.565,815.76,622.491,815.839,622.416Z" transform="translate(-742.222 -570.151)" fill="none"/>
        <path id="Path_26" data-name="Path 26" d="M400.94,570.016q-.378-.819-.725-1.656Q400.562,569.2,400.94,570.016Z" transform="translate(-378.856 -522.864)" fill="none"/>
        <path id="Path_27" data-name="Path 27" d="M732.942,671.843l-.319.12Z" transform="translate(-669.636 -613.388)" fill="none"/>
        <path id="Path_28" data-name="Path 28" d="M739.477,669.393l-.275.109Z" transform="translate(-675.391 -611.245)" fill="none"/>
        <path id="Path_29" data-name="Path 29" d="M777.394,650.76c-.1.057-.2.114-.293.17C777.2,650.874,777.3,650.817,777.394,650.76Z" transform="translate(-708.544 -594.945)" fill="none"/>
        <path id="Path_30" data-name="Path 30" d="M771.62,654.009l-.306.168Z" transform="translate(-703.482 -597.787)" fill="none"/>
        <path id="Path_31" data-name="Path 31" d="M726.531,674.185l-.335.119Z" transform="translate(-664.014 -615.437)" fill="none"/>
        <path id="Path_32" data-name="Path 32" d="M747.4,666.582l-.1.044Z" transform="translate(-682.469 -608.786)" fill="none"/>
        <path id="Path_33" data-name="Path 33" d="M765.779,657.145l-.309.16Z" transform="translate(-698.37 -600.531)" fill="none"/>
        <path id="Path_34" data-name="Path 34" d="M795.886,639.246c-.059.042-.116.086-.175.128C795.77,639.332,795.828,639.288,795.886,639.246Z" transform="translate(-724.823 -584.873)" fill="none"/>
        <path id="Path_35" data-name="Path 35" d="M753.827,663.176l-.268.125Z" transform="translate(-687.95 -605.806)" fill="none"/>
        <path id="Path_36" data-name="Path 36" d="M759.853,660.182l-.3.148Z" transform="translate(-693.193 -603.187)" fill="none"/>
        <path id="Path_37" data-name="Path 37" d="M692.618,684.995l-.2.052Z" transform="translate(-634.464 -624.893)" fill="none"/>
        <path id="Path_38" data-name="Path 38" d="M789.157,643.884c-.061.04-.122.079-.183.119C789.035,643.963,789.1,643.924,789.157,643.884Z" transform="translate(-718.93 -588.93)" fill="none"/>
        <path id="Path_39" data-name="Path 39" d="M700.706,682.726l-.225.065Z" transform="translate(-641.519 -622.908)" fill="none"/>
        <path id="Path_40" data-name="Path 40" d="M685.408,686.658l-.3.073Z" transform="translate(-628.07 -626.348)" fill="none"/>
        <path id="Path_41" data-name="Path 41" d="M783.149,647.386c-.088.055-.177.109-.266.163C782.972,647.495,783.061,647.441,783.149,647.386Z" transform="translate(-713.602 -591.994)" fill="none"/>
        <path id="Path_42" data-name="Path 42" d="M720.131,676.423l-.338.114Z" transform="translate(-658.413 -617.394)" fill="none"/>
        <path id="Path_43" data-name="Path 43" d="M707.244,680.635l-.308.093Z" transform="translate(-647.166 -621.079)" fill="none"/>
        <path id="Path_44" data-name="Path 44" d="M713.7,678.565l-.332.106Z" transform="translate(-652.795 -619.268)" fill="none"/>
        <path id="Path_45" data-name="Path 45" d="M489.152,310.793l-.022,0c-.464.1-.94.214-1.424.335.485-.121.961-.233,1.424-.335Z" transform="translate(-455.39 -297.553)" fill="none"/>
        <path id="Path_46" data-name="Path 46" d="M716.021,293.231q1.192.074,2.363.186Q717.212,293.3,716.021,293.231Z" transform="translate(-655.113 -282.19)" fill="none"/>
        <path id="Path_47" data-name="Path 47" d="M734.887,294.72q1.172.114,2.324.274Q736.058,294.832,734.887,294.72Z" transform="translate(-671.616 -283.493)" fill="none"/>
        <path id="Path_48" data-name="Path 48" d="M753.447,296.9q.865.121,1.721.273Q754.312,297.025,753.447,296.9Z" transform="translate(-687.852 -285.403)" fill="none"/>
        <path id="Path_49" data-name="Path 49" d="M696.815,292.3q.607.022,1.208.051Q697.422,292.318,696.815,292.3Z" transform="translate(-638.312 -281.372)" fill="none"/>
        <path id="Path_50" data-name="Path 50" d="M584.691,295.738q.579-.065,1.157-.124Q585.27,295.673,584.691,295.738Z" transform="translate(-540.23 -284.276)" fill="none"/>
        <path id="Path_51" data-name="Path 51" d="M781.964,303.717a12.175,12.175,0,0,0-2.42-1.393,35.821,35.821,0,0,0-7.809-2.4,35.821,35.821,0,0,1,7.809,2.4A12.175,12.175,0,0,1,781.964,303.717Z" transform="translate(-703.85 -288.045)" fill="none"/>
        <path id="Path_52" data-name="Path 52" d="M886.058,443.474q0,.164-.008.329Q886.054,443.638,886.058,443.474Z" transform="translate(-803.848 -413.618)" fill="none"/>
        <path id="Path_53" data-name="Path 53" d="M594.887,294.711q.624-.062,1.246-.115Q595.511,294.65,594.887,294.711Z" transform="translate(-549.149 -283.384)" fill="none"/>
        <path id="Path_54" data-name="Path 54" d="M572.462,297.012q.622-.079,1.242-.151Q573.084,296.933,572.462,297.012Z" transform="translate(-529.532 -285.366)" fill="none"/>
        <path id="Path_55" data-name="Path 55" d="M880.623,376.142c.178,1.165.305,2.352.383,3.551-.078-1.2-.206-2.385-.383-3.551-.069-.451-.153-.9-.257-1.352C880.47,375.238,880.555,375.691,880.623,376.142Z" transform="translate(-798.877 -353.535)" fill="none"/>
        <path id="Path_56" data-name="Path 56" d="M1090.688,231.989a39.425,39.425,0,0,0-7.815.194,40.194,40.194,0,0,0-5.067.96c-4.084,1.05-8.029,2.5-11.583,5.729a7.261,7.261,0,0,0-2.291,3.65,11.361,11.361,0,0,0,.154,4.969c1.914,8.819,6.783,17.525,13.123,21,5.389,2.951,11.7,1.376,16.308-.79a14.115,14.115,0,0,0,8.354-11.836,49.642,49.642,0,0,0-.533-11.9c-.417-3.081-1.169-6.635-3.107-8.79C1096.127,232.835,1093.091,232.172,1090.688,231.989Z" transform="translate(-959.268 -228.521)" fill="none"/>
        <path id="Path_57" data-name="Path 57" d="M830.477,583.762l-.005.006.005-.006a25.227,25.227,0,0,0,2.5-3.565A25.227,25.227,0,0,1,830.477,583.762Z" transform="translate(-755.231 -533.219)" fill="none"/>
        <path id="Path_58" data-name="Path 58" d="M370.159,349.1a14.365,14.365,0,0,1,3.4-3.182,14.365,14.365,0,0,0-3.4,3.182,10.475,10.475,0,0,0-1.789,3.864A10.475,10.475,0,0,1,370.159,349.1Z" transform="translate(-350.999 -328.278)" fill="none"/>
        <path id="Path_59" data-name="Path 59" d="M367.38,456.056a37.89,37.89,0,0,0,.909,4.242c.579,2.154,1.2,4.31,1.922,6.419-.722-2.109-1.344-4.265-1.922-6.419A37.89,37.89,0,0,1,367.38,456.056Z" transform="translate(-350.133 -424.624)" fill="none"/>
        <path id="Path_60" data-name="Path 60" d="M413.252,595.335a33.2,33.2,0,0,1-3.106-5.1,33.2,33.2,0,0,0,3.106,5.1c6.082,8.143,15.946,9.525,24.717,8.3l.02,0-.02,0C429.2,604.86,419.334,603.478,413.252,595.335Z" transform="translate(-387.543 -541.998)" fill="none"/>
        <path id="Path_61" data-name="Path 61" d="M617.163,291.789l.611.017-.611-.017c-2.849-.075-5.779-.006-8.756.2q-.624.044-1.252.1.627-.052,1.252-.1C611.384,291.783,614.315,291.714,617.163,291.789Z" transform="translate(-559.881 -280.903)" fill="none"/>
        <path id="Path_62" data-name="Path 62" d="M866.932,537.4c-.136.4-.277.788-.427,1.175C866.655,538.189,866.8,537.8,866.932,537.4Z" transform="translate(-786.752 -495.782)" fill="none"/>
        <path id="Path_63" data-name="Path 63" d="M520.477,305.9l.38-.072Z" transform="translate(-484.057 -293.211)" fill="none"/>
        <path id="Path_64" data-name="Path 64" d="M549.9,299.967q.622-.1,1.243-.186Q550.519,299.87,549.9,299.967Z" transform="translate(-509.793 -287.92)" fill="none"/>
        <path id="Path_65" data-name="Path 65" d="M527.249,303.575q.623-.115,1.245-.222Q527.872,303.46,527.249,303.575Z" transform="translate(-489.981 -291.045)" fill="none"/>
        <path id="Path_66" data-name="Path 66" d="M859.559,546.787q-.452,1.165-.994,2.279Q859.1,547.953,859.559,546.787Z" transform="translate(-779.806 -503.993)" fill="none"/>
        <path id="Path_67" data-name="Path 67" d="M539.143,301.768q.548-.093,1.095-.18Q539.69,301.675,539.143,301.768Z" transform="translate(-500.386 -289.501)" fill="none"/>
        <path id="Path_68" data-name="Path 68" d="M562.009,298.427q.554-.078,1.106-.15Q562.563,298.349,562.009,298.427Z" transform="translate(-520.388 -286.604)" fill="none"/>
        <path id="Path_69" data-name="Path 69" d="M513.321,307.306l.37-.074Z" transform="translate(-477.797 -294.438)" fill="none"/>
        <path id="Path_70" data-name="Path 70" d="M375.636,206.7a75.382,75.382,0,0,0-19.293-1.5,60.517,60.517,0,0,0-16.511,3.331c-7.261,2.508-8.17,5.087-18.031,6.493-10.807.857-12.918-1.63-23.043-2.715a131.087,131.087,0,0,0-27.746.045c-15.246,1.426-28.013,4.745-41.283,8.448-.278.078.338,4,.376,4.329.213,1.847,1.49,8.166,2.219,9.444.449.787,1.83,1.248,2.8,1.627a3.218,3.218,0,0,1,.914.483,3.1,3.1,0,0,1,.741,1.115c2.814,5.984,5.654,11.968,8.72,17.7,2.553,4.776,5.649,9.316,9.921,12.4,7.066,5.1,16.744,6.177,24.635,4.757A81.219,81.219,0,0,0,292.1,269.54a45.13,45.13,0,0,0,9.885-4.6,27.2,27.2,0,0,0,10.213-12.06,93.5,93.5,0,0,0,4.775-14.83c.831-3.273,1.241-8.26,3.508-10.36a7.982,7.982,0,0,1,.9-.722,5.7,5.7,0,0,1,.913-.536,6.271,6.271,0,0,1,1.635-.439,6.466,6.466,0,0,1,1.07-.079,5.084,5.084,0,0,1,1.067.152,7.617,7.617,0,0,1,.866.263c.2.073.391.157.586.241,2.694,1.23,4.7,5.546,6.455,8.139a80.606,80.606,0,0,0,8.24,10.711,16.288,16.288,0,0,0,10.034,5.3,20.793,20.793,0,0,0,6.653-.5,33.675,33.675,0,0,0,6.525-2.144,16.853,16.853,0,0,0,8.873-10.055,31.187,31.187,0,0,0,1.387-9.392c.022-3.855-.074-7.749-.177-11.576-.007-.256-.2-.52-.138-.736.048-.16.322-.281.406-.4.25-.342,1.309-.8,1.378-1.257.022-.147-.438-2.615-.59-3.564A35.453,35.453,0,0,0,375.636,206.7ZM311.4,227.674c.177,1.165.305,2.352.383,3.551.023.348.042.7.056,1.046q.054,1.321.023,2.653,0,.164-.009.329c-.017.569-.044,1.138-.084,1.707q-.066.939-.174,1.874-.054.467-.119.933a38.162,38.162,0,0,1-.925,4.584q-.12.449-.252.894c-.144.486-.3.966-.465,1.443-.136.4-.277.788-.428,1.175q-.453,1.166-.994,2.279-.473.975-1.013,1.905a25.219,25.219,0,0,1-2.5,3.565l-.005.006q-.252.3-.515.586c-.059.065-.12.128-.18.192-.12.129-.24.257-.363.382-.072.074-.146.146-.219.219-.114.113-.229.226-.346.337-.079.075-.159.149-.239.223q-.173.16-.35.316-.124.109-.249.217-.18.155-.364.307c-.083.069-.166.138-.25.206-.13.1-.261.207-.393.309-.079.061-.158.123-.238.184-.156.117-.313.232-.472.346-.059.042-.116.086-.175.128q-.326.231-.66.453c-.06.04-.122.079-.183.119-.165.108-.33.215-.5.32-.088.055-.177.109-.266.163-.143.087-.286.174-.431.26-.1.057-.2.114-.293.17q-.208.12-.419.237l-.306.168q-.21.114-.423.225l-.309.16c-.146.075-.293.148-.44.22l-.3.148c-.16.077-.321.152-.483.227l-.268.124q-.339.154-.683.3l-.1.044q-.367.157-.739.308l-.275.109c-.168.067-.336.133-.505.2l-.319.12c-.156.058-.313.117-.47.173l-.335.119-.464.161-.338.114q-.236.079-.472.154l-.332.106c-.166.052-.332.1-.5.153l-.308.093c-.194.058-.389.113-.583.169l-.225.065q-.4.113-.808.22l-.2.052c-.2.053-.409.106-.614.157l-.3.073-.516.123-.33.076-.49.11-.337.073-.488.1L284.2,266l-.5.1-.315.06-.112.022-.374.067-.35.063-.5.086-.323.054-.556.088-.266.042q-.4.06-.8.116l-.02,0c-8.771,1.229-18.635-.153-24.717-8.3a33.2,33.2,0,0,1-3.106-5.1q-.267-.537-.519-1.083-.378-.819-.725-1.656t-.666-1.688q-.32-.851-.614-1.715c-.722-2.109-1.344-4.265-1.922-6.419a37.885,37.885,0,0,1-.909-4.242q-.043-.289-.079-.578-.052-.414-.091-.829-.055-.594-.077-1.188-.013-.347-.013-.693a15.308,15.308,0,0,1,.243-2.79c.042-.225.087-.448.141-.67a10.476,10.476,0,0,1,1.789-3.864,14.366,14.366,0,0,1,3.4-3.181,30.655,30.655,0,0,1,9.759-4.059c.485-.121.961-.233,1.425-.335l.022,0q.434-.1.868-.187l.323-.067.57-.118.37-.074.526-.1.38-.072.36-.069.108-.019q.623-.115,1.245-.222l.244-.041q.548-.093,1.095-.18l.252-.04q.622-.1,1.243-.186l.274-.039q.554-.078,1.106-.15l.2-.027q.622-.079,1.242-.151l.289-.033q.579-.065,1.157-.123l.12-.013q.624-.062,1.246-.115l.29-.025q.627-.052,1.252-.1c2.977-.21,5.908-.279,8.756-.2l.612.017.608.02q.607.022,1.208.051t1.2.066q1.192.074,2.363.186t2.324.273q.865.121,1.721.273.285.051.57.105a35.82,35.82,0,0,1,7.809,2.4,12.172,12.172,0,0,1,2.42,1.393,8.306,8.306,0,0,1,1.774,1.8,10.6,10.6,0,0,1,1.6,3.785C311.252,226.77,311.336,227.223,311.4,227.674Zm60.323-7.163a49.648,49.648,0,0,1,.533,11.9,14.115,14.115,0,0,1-8.354,11.836c-4.6,2.166-10.919,3.741-16.308.79-6.34-3.472-11.209-12.178-13.123-21a11.364,11.364,0,0,1-.154-4.969,7.261,7.261,0,0,1,2.291-3.65c3.554-3.233,7.5-4.679,11.583-5.729a40.194,40.194,0,0,1,5.067-.96,39.423,39.423,0,0,1,7.815-.194c2.4.183,5.439.847,7.542,3.186C370.558,213.876,371.31,217.43,371.728,220.511Z" transform="translate(-229.659 -205.067)" fill="#7aa402"/>
      </g>
      <g id="Group_3" data-name="Group 3" transform="translate(30.567 13.531)">
        <path id="Path_71" data-name="Path 71" d="M486.5,313.873c-1.89.24-3.785.536-5.672.887h0c-1.11.206-2.231.434-3.332.677q-2,.441-3.748.992a105.827,105.827,0,0,1,5.237,40.923,20.8,20.8,0,0,0,1.974.663,27.351,27.351,0,0,0,8.208.913,115.634,115.634,0,0,0-1.041-26.715,111.586,111.586,0,0,1,10.117,13.66l.735-.053a119.748,119.748,0,0,0,6.7-15.388,133.369,133.369,0,0,1,1.362,24.5q.3-.131.6-.266a25.719,25.719,0,0,0,7.778-5.207,142.053,142.053,0,0,0-4.623-35.328,61.414,61.414,0,0,0-10.4-1c-.443-.012-.89-.018-1.339-.023q-1.274,5.591-3.023,10.854A116.492,116.492,0,0,0,486.5,313.873Z" transform="translate(-473.743 -313.117)" fill="#204419"/>
      </g>
      <g id="Group_4" data-name="Group 4" transform="translate(111.033 5.138)">
        <path id="Path_72" data-name="Path 72" d="M1124.6,247.21c-.125.031-.249.061-.373.093a27.87,27.87,0,0,0-7.947,3.15,83.017,83.017,0,0,1,3.156,24.791,17.081,17.081,0,0,0,4.225,3.391,11.036,11.036,0,0,0,2.236.918,87.551,87.551,0,0,0-.654-19.229,92.862,92.862,0,0,1,7.158,13.257l.473-.027a98.345,98.345,0,0,0,3.629-14.491A105.851,105.851,0,0,1,1137.666,279c.356-.15.713-.306,1.071-.474a13.093,13.093,0,0,0,4.327-3.175,111.512,111.512,0,0,0-3.705-28.661,13.72,13.72,0,0,0-2.829-.491,37.073,37.073,0,0,0-4.887-.043q-.27,4.8-.987,9.4A96.347,96.347,0,0,0,1124.6,247.21Z" transform="translate(-1116.279 -246.096)" fill="#204419"/>
      </g>
    </g>
    <g id="Group_7" data-name="Group 7" transform="translate(213.202 173.053)">
      <g id="Group_6" data-name="Group 6" transform="translate(0 0)">
        <path id="Path_73" data-name="Path 73" d="M806.166,618.774c-.083.069-.166.138-.25.206C806,618.912,806.083,618.843,806.166,618.774Z" transform="translate(-731.69 -562.956)" fill="none"/>
        <path id="Path_74" data-name="Path 74" d="M645.734,682.672l-.323.054Z" transform="translate(-591.285 -618.852)" fill="none"/>
        <path id="Path_75" data-name="Path 75" d="M652.362,681.487l-.349.063Z" transform="translate(-597.06 -617.815)" fill="none"/>
        <path id="Path_76" data-name="Path 76" d="M659,680.295l-.315.06Z" transform="translate(-602.898 -616.772)" fill="none"/>
        <path id="Path_77" data-name="Path 77" d="M672.081,677.577l-.337.073Z" transform="translate(-614.32 -614.395)" fill="none"/>
        <path id="Path_78" data-name="Path 78" d="M801.117,622.882c-.079.061-.158.123-.238.184C800.959,623.005,801.038,622.943,801.117,622.882Z" transform="translate(-727.283 -566.549)" fill="none"/>
        <path id="Path_79" data-name="Path 79" d="M811.071,614.59c-.082.073-.165.146-.249.217C810.906,614.736,810.988,614.663,811.071,614.59Z" transform="translate(-735.981 -559.296)" fill="none"/>
        <path id="Path_80" data-name="Path 80" d="M678.679,676.1l-.33.076Z" transform="translate(-620.098 -613.099)" fill="none"/>
        <path id="Path_81" data-name="Path 81" d="M665.526,678.974l-.333.068Z" transform="translate(-608.589 -615.617)" fill="none"/>
        <path id="Path_82" data-name="Path 82" d="M639.107,683.8l-.266.042Z" transform="translate(-585.538 -619.842)" fill="none"/>
        <path id="Path_83" data-name="Path 83" d="M367.248,390.717c.042-.225.087-.448.141-.669C367.335,390.269,367.29,390.493,367.248,390.717Z" transform="translate(-347.957 -362.873)" fill="none"/>
        <path id="Path_84" data-name="Path 84" d="M820.489,605.847c-.072.074-.146.146-.219.219C820.343,605.993,820.417,605.921,820.489,605.847Z" transform="translate(-744.246 -551.648)" fill="none"/>
        <path id="Path_85" data-name="Path 85" d="M825.1,601.263c-.059.065-.12.128-.18.192C824.984,601.391,825.045,601.328,825.1,601.263Z" transform="translate(-748.317 -547.638)" fill="none"/>
        <path id="Path_86" data-name="Path 86" d="M365.322,418.368q-.013-.347-.013-.693Q365.309,418.021,365.322,418.368Z" transform="translate(-346.26 -387.041)" fill="none"/>
        <path id="Path_87" data-name="Path 87" d="M506.188,296.7l.323-.067Z" transform="translate(-469.497 -281.154)" fill="none"/>
        <path id="Path_88" data-name="Path 88" d="M395.564,544.436q-.347-.837-.666-1.688Q395.217,543.6,395.564,544.436Z" transform="translate(-372.144 -496.45)" fill="none"/>
        <path id="Path_89" data-name="Path 89" d="M366.114,433.521q-.052-.414-.091-.829Q366.061,433.107,366.114,433.521Z" transform="translate(-346.885 -400.177)" fill="none"/>
        <path id="Path_90" data-name="Path 90" d="M815.839,610.286c-.079.075-.159.149-.239.223C815.68,610.435,815.76,610.361,815.839,610.286Z" transform="translate(-740.161 -555.531)" fill="none"/>
        <path id="Path_91" data-name="Path 91" d="M400.94,557.885q-.378-.819-.725-1.656Q400.562,557.066,400.94,557.885Z" transform="translate(-376.795 -508.243)" fill="none"/>
        <path id="Path_92" data-name="Path 92" d="M732.942,659.713l-.319.12Z" transform="translate(-667.575 -598.768)" fill="none"/>
        <path id="Path_93" data-name="Path 93" d="M739.477,657.263l-.275.109Z" transform="translate(-673.33 -596.625)" fill="none"/>
        <path id="Path_94" data-name="Path 94" d="M777.394,638.63c-.1.057-.2.114-.293.17C777.2,638.744,777.3,638.687,777.394,638.63Z" transform="translate(-706.483 -580.325)" fill="none"/>
        <path id="Path_95" data-name="Path 95" d="M771.62,641.879l-.306.168Z" transform="translate(-701.421 -583.167)" fill="none"/>
        <path id="Path_96" data-name="Path 96" d="M726.531,662.054l-.335.119Z" transform="translate(-661.953 -600.816)" fill="none"/>
        <path id="Path_97" data-name="Path 97" d="M747.4,654.452l-.1.044Z" transform="translate(-680.408 -594.166)" fill="none"/>
        <path id="Path_98" data-name="Path 98" d="M765.779,645.014l-.309.16Z" transform="translate(-696.309 -585.91)" fill="none"/>
        <path id="Path_99" data-name="Path 99" d="M795.886,627.115c-.059.042-.116.086-.175.128C795.77,627.2,795.828,627.157,795.886,627.115Z" transform="translate(-722.763 -570.252)" fill="none"/>
        <path id="Path_100" data-name="Path 100" d="M753.827,651.046l-.268.125Z" transform="translate(-685.889 -591.186)" fill="none"/>
        <path id="Path_101" data-name="Path 101" d="M759.853,648.051l-.3.148Z" transform="translate(-691.132 -588.566)" fill="none"/>
        <path id="Path_102" data-name="Path 102" d="M692.618,672.864l-.2.052Z" transform="translate(-632.403 -610.272)" fill="none"/>
        <path id="Path_103" data-name="Path 103" d="M789.157,631.754c-.061.04-.122.079-.183.119C789.035,631.833,789.1,631.794,789.157,631.754Z" transform="translate(-716.869 -574.31)" fill="none"/>
        <path id="Path_104" data-name="Path 104" d="M700.706,670.6l-.225.065Z" transform="translate(-639.458 -608.288)" fill="none"/>
        <path id="Path_105" data-name="Path 105" d="M685.408,674.528l-.3.073Z" transform="translate(-626.01 -611.728)" fill="none"/>
        <path id="Path_106" data-name="Path 106" d="M783.149,635.256c-.088.055-.177.109-.266.163C782.972,635.364,783.061,635.311,783.149,635.256Z" transform="translate(-711.541 -577.374)" fill="none"/>
        <path id="Path_107" data-name="Path 107" d="M720.131,664.293l-.338.114Z" transform="translate(-656.352 -602.774)" fill="none"/>
        <path id="Path_108" data-name="Path 108" d="M707.244,668.505l-.308.093Z" transform="translate(-645.105 -606.459)" fill="none"/>
        <path id="Path_109" data-name="Path 109" d="M713.7,666.435l-.332.106Z" transform="translate(-650.734 -604.648)" fill="none"/>
        <path id="Path_110" data-name="Path 110" d="M489.152,298.663l-.022,0c-.464.1-.94.214-1.424.335.485-.121.961-.233,1.424-.335Z" transform="translate(-453.329 -282.933)" fill="none"/>
        <path id="Path_111" data-name="Path 111" d="M716.021,281.1q1.192.075,2.363.187Q717.212,281.173,716.021,281.1Z" transform="translate(-653.052 -267.569)" fill="none"/>
        <path id="Path_112" data-name="Path 112" d="M734.887,282.59q1.172.113,2.324.274Q736.058,282.7,734.887,282.59Z" transform="translate(-669.555 -268.872)" fill="none"/>
        <path id="Path_113" data-name="Path 113" d="M753.447,284.774q.865.121,1.721.273Q754.312,284.895,753.447,284.774Z" transform="translate(-685.791 -270.783)" fill="none"/>
        <path id="Path_114" data-name="Path 114" d="M696.815,280.166q.607.022,1.208.051Q697.422,280.188,696.815,280.166Z" transform="translate(-636.251 -266.752)" fill="none"/>
        <path id="Path_115" data-name="Path 115" d="M584.691,283.609q.579-.065,1.157-.124Q585.27,283.543,584.691,283.609Z" transform="translate(-538.169 -269.655)" fill="none"/>
        <path id="Path_116" data-name="Path 116" d="M781.964,291.587a12.174,12.174,0,0,0-2.42-1.393,35.822,35.822,0,0,0-7.809-2.4,35.822,35.822,0,0,1,7.809,2.4A12.174,12.174,0,0,1,781.964,291.587Z" transform="translate(-701.789 -273.425)" fill="none"/>
        <path id="Path_117" data-name="Path 117" d="M886.058,431.343q0,.165-.008.329Q886.054,431.507,886.058,431.343Z" transform="translate(-801.787 -398.997)" fill="none"/>
        <path id="Path_118" data-name="Path 118" d="M594.887,282.581q.624-.062,1.246-.115Q595.511,282.52,594.887,282.581Z" transform="translate(-547.088 -268.764)" fill="none"/>
        <path id="Path_119" data-name="Path 119" d="M572.462,284.882q.622-.079,1.242-.15Q573.084,284.8,572.462,284.882Z" transform="translate(-527.471 -270.746)" fill="none"/>
        <path id="Path_120" data-name="Path 120" d="M880.623,364.011c.178,1.165.305,2.352.383,3.551-.078-1.2-.206-2.385-.383-3.551-.069-.451-.153-.9-.257-1.352C880.47,363.108,880.555,363.56,880.623,364.011Z" transform="translate(-796.816 -338.914)" fill="none"/>
        <path id="Path_121" data-name="Path 121" d="M1090.688,219.858a39.415,39.415,0,0,0-7.815.194,40.192,40.192,0,0,0-5.067.96c-4.084,1.05-8.029,2.5-11.583,5.729a7.261,7.261,0,0,0-2.291,3.651,11.361,11.361,0,0,0,.154,4.969c1.914,8.819,6.783,17.525,13.123,21,5.389,2.951,11.7,1.376,16.308-.79a14.115,14.115,0,0,0,8.354-11.836,49.642,49.642,0,0,0-.533-11.9c-.417-3.081-1.169-6.635-3.107-8.791C1096.127,220.7,1093.091,220.041,1090.688,219.858Z" transform="translate(-957.207 -213.901)" fill="none"/>
        <path id="Path_122" data-name="Path 122" d="M830.477,571.632l-.005.006.005-.006a25.23,25.23,0,0,0,2.5-3.565A25.237,25.237,0,0,1,830.477,571.632Z" transform="translate(-753.17 -518.599)" fill="none"/>
        <path id="Path_123" data-name="Path 123" d="M370.159,336.969a14.366,14.366,0,0,1,3.4-3.182,14.366,14.366,0,0,0-3.4,3.182,10.476,10.476,0,0,0-1.789,3.864A10.476,10.476,0,0,1,370.159,336.969Z" transform="translate(-348.938 -313.658)" fill="none"/>
        <path id="Path_124" data-name="Path 124" d="M367.38,443.926a37.885,37.885,0,0,0,.909,4.242c.579,2.154,1.2,4.31,1.922,6.419-.722-2.109-1.344-4.265-1.922-6.419A37.885,37.885,0,0,1,367.38,443.926Z" transform="translate(-348.072 -410.004)" fill="none"/>
        <path id="Path_125" data-name="Path 125" d="M413.252,583.2a33.2,33.2,0,0,1-3.106-5.1,33.2,33.2,0,0,0,3.106,5.1c6.082,8.143,15.946,9.525,24.717,8.3l.02,0-.02,0C429.2,592.73,419.334,591.348,413.252,583.2Z" transform="translate(-385.482 -527.378)" fill="none"/>
        <path id="Path_126" data-name="Path 126" d="M617.163,279.659l.611.018-.611-.018c-2.849-.075-5.779-.006-8.756.2q-.624.044-1.252.1.627-.052,1.252-.1C611.384,279.653,614.315,279.584,617.163,279.659Z" transform="translate(-557.82 -266.283)" fill="none"/>
        <path id="Path_127" data-name="Path 127" d="M866.932,525.271c-.136.4-.277.788-.427,1.175C866.655,526.059,866.8,525.666,866.932,525.271Z" transform="translate(-784.691 -481.162)" fill="none"/>
        <path id="Path_128" data-name="Path 128" d="M520.477,293.771l.38-.072Z" transform="translate(-481.996 -278.59)" fill="none"/>
        <path id="Path_129" data-name="Path 129" d="M549.9,287.837q.622-.1,1.243-.186Q550.519,287.74,549.9,287.837Z" transform="translate(-507.732 -273.3)" fill="none"/>
        <path id="Path_130" data-name="Path 130" d="M527.249,291.444q.623-.115,1.245-.222Q527.872,291.329,527.249,291.444Z" transform="translate(-487.92 -276.423)" fill="none"/>
        <path id="Path_131" data-name="Path 131" d="M859.559,534.657q-.452,1.166-.994,2.279Q859.1,535.823,859.559,534.657Z" transform="translate(-777.745 -489.373)" fill="none"/>
        <path id="Path_132" data-name="Path 132" d="M539.143,289.638q.548-.093,1.095-.18Q539.69,289.545,539.143,289.638Z" transform="translate(-498.325 -274.88)" fill="none"/>
        <path id="Path_133" data-name="Path 133" d="M562.009,286.3q.554-.078,1.106-.15Q562.563,286.219,562.009,286.3Z" transform="translate(-518.327 -271.984)" fill="none"/>
        <path id="Path_134" data-name="Path 134" d="M513.321,295.176l.37-.074Z" transform="translate(-475.737 -279.818)" fill="none"/>
        <path id="Path_135" data-name="Path 135" d="M345.873,174.986a77.7,77.7,0,0,1,14.659,1.589,44.026,44.026,0,0,1,1.066,4.954c.152.949.421,3.417.4,3.564a3.662,3.662,0,0,1-.808,1.306,1.289,1.289,0,0,0-.216.4,2.452,2.452,0,0,0-.052.736c.1,3.828.2,7.721.177,11.576a31.217,31.217,0,0,1-1.2,9.392,16.854,16.854,0,0,1-8.873,10.055A33.682,33.682,0,0,1,344.5,220.7a22.962,22.962,0,0,1-4.917.589,16.589,16.589,0,0,1-1.736-.089,16.288,16.288,0,0,1-10.034-5.3,80.6,80.6,0,0,1-8.24-10.711c-1.753-2.593-3.76-6.909-6.455-8.139-.195-.084-.389-.168-.586-.241a7.608,7.608,0,0,0-.866-.263,5.071,5.071,0,0,0-1.067-.152h-.1a6.707,6.707,0,0,0-.974.08,6.27,6.27,0,0,0-1.635.439,5.712,5.712,0,0,0-.913.536,7.977,7.977,0,0,0-.9.722c-2.267,2.1-2.677,7.087-3.508,10.36a93.5,93.5,0,0,1-4.775,14.83,27.2,27.2,0,0,1-10.213,12.06,45.131,45.131,0,0,1-9.885,4.6,81.22,81.22,0,0,1-12.046,3.123,36.989,36.989,0,0,1-6.523.575c-6.282,0-12.906-1.573-18.112-5.331-4.272-3.083-7.367-7.623-9.921-12.4-3.066-5.733-5.906-11.718-8.72-17.7a3.1,3.1,0,0,0-.741-1.115,3.216,3.216,0,0,0-.914-.483c-.97-.379-2.351-.84-2.8-1.627-.73-1.278-2.007-7.6-2.219-9.444-.038-.329-.792-4.8-.514-4.881,13.27-3.7,26.036-7.022,41.283-8.448,5.368-.5,10.108-.759,14.685-.759a120.647,120.647,0,0,1,13.061.714c8.681.93,11.47,2.891,18.9,2.891,1.236,0,2.6-.054,4.142-.177,9.86-1.406,10.769-3.985,18.031-6.493a60.518,60.518,0,0,1,16.511-3.331c1.4-.1,2.752-.143,4.065-.143m0-1.933c-1.4,0-2.814.05-4.2.147a66.954,66.954,0,0,0-8.514,1.1,64.109,64.109,0,0,0-8.492,2.332,45.572,45.572,0,0,0-6.425,2.83,29.83,29.83,0,0,1-11.188,3.568c-1.422.111-2.707.166-3.928.166a38.53,38.53,0,0,1-9.538-1.271,72.985,72.985,0,0,0-9.157-1.609,123.289,123.289,0,0,0-13.267-.725c-4.542,0-9.266.244-14.865.768a179.169,179.169,0,0,0-21.614,3.406c-6.478,1.41-12.684,3.061-20.009,5.105h0a2.029,2.029,0,0,0-1.457,1.835,4.6,4.6,0,0,0-.007.653c.016.338.058.78.128,1.349.118.959.286,2.044.386,2.693.028.181.06.386.067.442.121,1.049.511,3.154.948,5.124.871,3.925,1.353,4.771,1.512,5.049.747,1.308,2.266,1.89,3.486,2.358l.289.111a3.6,3.6,0,0,1,.369.161,3.74,3.74,0,0,1,.24.458c2.875,6.115,5.709,12.076,8.764,17.791a51.178,51.178,0,0,0,4.488,7.1,27.606,27.606,0,0,0,15.27,10.324,37.12,37.12,0,0,0,9.98,1.328,38.882,38.882,0,0,0,6.865-.605,83.42,83.42,0,0,0,12.333-3.2,46.458,46.458,0,0,0,10.3-4.8,28.929,28.929,0,0,0,6.378-5.588,30.115,30.115,0,0,0,4.554-7.314A95.5,95.5,0,0,0,304.451,209c.211-.83.388-1.724.576-2.671.493-2.483,1.106-5.574,2.372-6.747a6.075,6.075,0,0,1,.681-.547,4.115,4.115,0,0,1,.6-.36,4.364,4.364,0,0,1,1.134-.294,4.768,4.768,0,0,1,.694-.06h.057a3.2,3.2,0,0,1,.66.1,5.71,5.71,0,0,1,.645.2c.127.047.273.109.427.175l.039.017c1.511.7,3.056,3.26,4.3,5.315.463.765.9,1.488,1.34,2.14a82.93,82.93,0,0,0,8.448,10.968,20.9,20.9,0,0,0,5.322,4.072,16.374,16.374,0,0,0,5.9,1.811,18.6,18.6,0,0,0,1.939.1,24.8,24.8,0,0,0,5.331-.634,35.71,35.71,0,0,0,6.9-2.268,17.991,17.991,0,0,0,5.848-4.269,19.058,19.058,0,0,0,4.072-6.945,32.442,32.442,0,0,0,1.3-9.987c.022-3.844-.071-7.7-.178-11.639,0-.02,0-.044,0-.07l.039-.049a4.2,4.2,0,0,0,1.019-1.985,7.5,7.5,0,0,0-.126-1.978c-.037-.337-.168-1.491-.277-2.174-.212-1.329-.526-2.787-.651-3.352-.109-.5-.216-.951-.3-1.282-.047-.185-.087-.331-.121-.444-.029-.095-.055-.172-.084-.244a1.962,1.962,0,0,0-1.465-1.227,79.458,79.458,0,0,0-15.013-1.622Z" transform="translate(-213.202 -173.053)" fill="#30661c"/>
      </g>
    </g>
    <path id="Path_136" data-name="Path 136" d="M1925.795,569.006c-.39.486-.827,1.162-1.313,1.21s-.924-.759-1.314-1.342V542.191q.584-1.167,1.387-1.168t1.24,1.168S1925.843,564.214,1925.795,569.006Z" transform="translate(-1495.825 -321.889)" fill="#204419"/>
    <g id="Group_8" data-name="Group 8" transform="translate(435.607 226.07)">
      <path id="Path_137" data-name="Path 137" d="M2021.714,624.064h-2.551a7.532,7.532,0,0,0-7.509,7.509v.039a7.53,7.53,0,0,0,7.509,7.509h2.551a6.636,6.636,0,0,0,5.138-2.249,8.037,8.037,0,0,0-.074-10.765A6.711,6.711,0,0,0,2021.714,624.064Z" transform="translate(-2008.837 -620.601)" fill="none"/>
      <path id="Path_138" data-name="Path 138" d="M2004.259,596.708a23.013,23.013,0,0,0-7.426,0,11.141,11.141,0,0,0-5.42,3.526,9.688,9.688,0,0,0-2.258,6.536v1.257a10.2,10.2,0,0,0,2.26,6.671,7.986,7.986,0,0,0,5.111,3.123,30.927,30.927,0,0,0,8.046.152,8.589,8.589,0,0,0,4.661-2.756l.183-.2v2.348a1.3,1.3,0,1,0,2.594,0v-9.148c0-.033,0-.063,0-.094s0-.067,0-.1v-1.257a10.051,10.051,0,0,0-2.318-6.671A9.571,9.571,0,0,0,2004.259,596.708Zm3.071,16.112a6.844,6.844,0,0,1-5.3,2.32h-2.551a7.742,7.742,0,0,1-7.721-7.721v-.039a7.744,7.744,0,0,1,7.721-7.722h2.551a6.917,6.917,0,0,1,5.218,2.109,8.251,8.251,0,0,1,.078,11.052Z" transform="translate(-1989.156 -596.407)" fill="#204419"/>
    </g>
    <path id="Path_139" data-name="Path 139" d="M1365.762,620.386a1.363,1.363,0,0,1-1.312,1.153,1.3,1.3,0,0,1-1.312-1.153V600.848a1.321,1.321,0,0,1,2.623,0v19.538Z" transform="translate(-1005.929 -373.202)" fill="#204419"/>
    <path id="Path_140" data-name="Path 140" d="M1468.622,581.747v-10.7a9.688,9.688,0,0,0-2.244-6.458,7.275,7.275,0,0,0-4.98-2.883,22.894,22.894,0,0,0-7.735-.145,6.617,6.617,0,0,0-4.67,3.211v-8.308c0-.006,0-.011,0-.017a1.259,1.259,0,0,0-2.479-.009c0,.007-.005.008-.007.015v25.323c0,.005.009.006.012.011a1.23,1.23,0,0,0,1.339,1.014,1.25,1.25,0,0,0,1.316-.926c.009-.011.025-.015.034-.026V571.777a7.318,7.318,0,0,1,7.3-7.3h2.445a7.076,7.076,0,0,1,5,1.824,6.907,6.907,0,0,1,1.97,5.328q-.146,3.211,0,7.443v2.677s0,0,0,.005,0,0,0,.005v.013s0,0,0,.006a1.233,1.233,0,0,0,1.346,1.019,1.256,1.256,0,0,0,1.321-.924c.008-.012.021-.016.029-.028v-.08s0-.007,0-.01S1468.622,581.751,1468.622,581.747Z" transform="translate(-1078.859 -334.469)" fill="#204419"/>
    <path id="Path_141" data-name="Path 141" d="M1706.374,599.349c0-.576-.641-1.043-1.431-1.043a1.3,1.3,0,0,0-1.419,1l0,0v.007c0,.011-.009.021-.009.032s.008.021.009.032V610.4a7.059,7.059,0,0,1-1.788,4.744,5.723,5.723,0,0,1-4.853,2.408H1694.4a6.533,6.533,0,0,1-5.254-2.427,8.155,8.155,0,0,1-2.189-5.492V609.6q0-2.99-.073-10.216l0,0c0-.01.007-.018.007-.029a1.349,1.349,0,0,0-2.628,0c0,.008.006.015.006.023s-.006.005-.008.01V610.22a9.343,9.343,0,0,0,2.189,6.33,10.733,10.733,0,0,0,5.254,3.412,22.068,22.068,0,0,0,7.152,0,9.234,9.234,0,0,0,5.272-3.284,9.687,9.687,0,0,0,2.245-6.458V599.462l-.019-.022C1706.353,599.408,1706.374,599.381,1706.374,599.349Z" transform="translate(-1286.832 -371.998)" fill="#204419"/>
    <path id="Path_142" data-name="Path 142" d="M1925.79,568.951c0-.009-.006-.017-.007-.026s.006-.015.006-.022c0-4.785-.007-17.234-.007-17.234v-9.706a1.321,1.321,0,0,0-2.623,0v26.912c0,.015.01.027.011.042s-.008.022-.008.034a1.038,1.038,0,0,0,.708.911,1.36,1.36,0,0,0,.6.167,1.3,1.3,0,0,0,.5-.113A1.075,1.075,0,0,0,1925.79,568.951Z" transform="translate(-1495.818 -321.691)" fill="#204419"/>
    <path id="Path_143" data-name="Path 143" d="M1009.63,608.667a9.563,9.563,0,0,0-5.924-6.055,14.5,14.5,0,0,0-6.774-.372c-2.154.383-4.626,2.366-6.078,3.882-.578.6-.688.853-1.338-.012a11.007,11.007,0,0,0-2.635-3.019,7.438,7.438,0,0,0-3.348-1.161,17,17,0,0,0-6.532.094,10.732,10.732,0,0,0-5.254,3.411,9.347,9.347,0,0,0-2.189,6.331v10.4c.008.017.025.022.033.038a1.4,1.4,0,0,0,2.634.008c.01-.017.024-.031.034-.048v-9.814a8.154,8.154,0,0,1,2.189-5.491,6.53,6.53,0,0,1,5.254-2.427h2.481a5.723,5.723,0,0,1,4.853,2.408,7.056,7.056,0,0,1,1.788,4.743v10.44c0,.01.008.015.012.025s-.01.024-.01.037c0,.576.621,1.043,1.388,1.043a1.259,1.259,0,0,0,1.38-1.014s0-.006,0-.01V622.1s0-.008,0-.013,0-.008,0-.012l.073-5.308v-5a6.523,6.523,0,0,1,1.9-3.935,12.568,12.568,0,0,1,3.819-2.707,5.865,5.865,0,0,1,1.9-.45,7.251,7.251,0,0,1,1.565-.027,7.054,7.054,0,0,1,6.153,5.066,11.387,11.387,0,0,1,.367,3.037c0,.331,0,.662,0,.991-.012,2.72-.023,5.537-.035,8.258,0,.02.009.027.01.046s-.011.026-.011.04c0,.576.633,1.043,1.415,1.043s1.415-.467,1.415-1.043c0,0,0-.006,0-.009l.012-.006c.023-2.315.046-4.775.069-7.091A19.716,19.716,0,0,0,1009.63,608.667Z" transform="translate(-661.636 -374.93)" fill="#204419"/>
  </g>
</svg>
