<svg xmlns="http://www.w3.org/2000/svg" width="52.256" height="52.256" viewBox="0 0 52.256 52.256">
  <g id="Group_15" data-name="Group 15" transform="translate(-11.34 -11.33)">
    <circle id="Ellipse_1" data-name="Ellipse 1" cx="2.682" cy="2.682" r="2.682" transform="translate(34.779 47.147)" fill="#204419"/>
    <path id="Path_173" data-name="Path 173" d="M37.461,11.33A26.128,26.128,0,1,0,63.6,37.458,26.128,26.128,0,0,0,37.461,11.33Zm0,48.135A22.007,22.007,0,1,1,59.475,37.458,22.007,22.007,0,0,1,37.461,59.465Z" fill="#7aa402"/>
    <path id="Path_174" data-name="Path 174" d="M49.011,45.844a2.061,2.061,0,0,0,2.061-2.061V31.52a2.061,2.061,0,0,0-4.122,0V43.784A2.061,2.061,0,0,0,49.011,45.844Z" transform="translate(-11.549 -5.879)" fill="#204419"/>
  </g>
</svg>
